<svg width="61.751px" height="61.751px" viewBox="-0.07 0 61.751 61.751" xmlns="http://www.w3.org/2000/svg">
  <path id="Path_3" data-name="Path 3" d="M328.667,219.141l-7.779-7.838a5.935,5.935,0,0,0-4.226-1.746h0a5.933,5.933,0,0,0-4.225,1.745l-38.183,38.174a1.512,1.512,0,0,0-.391.683l-5.015,19.271a1.5,1.5,0,0,0,1.452,1.878,1.472,1.472,0,0,0,.388-.051l19.154-5.132a1.49,1.49,0,0,0,.673-.389l38.148-38.147a5.989,5.989,0,0,0,.005-8.448ZM307.4,220.574l4.928,4.928-29.966,29.966-4.931-4.931Zm-31.465,46.17-2.613-2.613,2.78-10.681,10.45,10.449Zm13.514-4.189-4.966-4.966,29.966-29.966,4.966,4.966Zm37.088-37.088-5,5-12.014-12.015,5.031-5.03h0a2.953,2.953,0,0,1,2.1-.866h0a2.951,2.951,0,0,1,2.1.863l7.78,7.838a2.989,2.989,0,0,1,0,4.209Z" transform="translate(-268.799 -209.557)" fill="#0c2c67"/>
</svg>
